HIERARCHY
ROOT Hips
{
	OFFSET	0.00	0.00	0.00
	CHANNELS 6 Xposition Yposition Zposition Zrotation Xrotation Yrotation
	JOINT Chest
	{
		OFFSET	 0.00	 5.21	 0.00
		CHANNELS 3 Zrotation Xrotation Yrotation
		JOINT Neck
		{
			OFFSET	 0.00	 18.65	 0.00
			CHANNELS 3 Zrotation Xrotation Yrotation
			JOINT Head
			{
				OFFSET	 0.00	 5.45	 0.00
				CHANNELS 3 Zrotation Xrotation Yrotation
				End Site 
				{
					OFFSET	 0.00	 3.87	 0.00
				}
			}
		}
		JOINT LeftCollar
		{
			OFFSET	 1.12	 16.23	 1.87
			CHANNELS 3 Zrotation Xrotation Yrotation
			JOINT LeftUpArm
			{
				OFFSET	 5.54	 0.00	 0.00
				CHANNELS 3 Zrotation Xrotation Yrotation
				JOINT LeftLowArm
				{
					OFFSET	 0.00	-11.96	 0.00
					CHANNELS 3 Zrotation Xrotation Yrotation
					JOINT LeftHand
					{
						OFFSET	 0.00	-9.93	 0.00
						CHANNELS 3 Zrotation Xrotation Yrotation
						End Site 
						{
							OFFSET	 0.00	-7.00	 0.00
						}
					}
				}
			}
		}
		JOINT RightCollar
		{
			OFFSET	-1.12	 16.23	 1.87
			CHANNELS 3 Zrotation Xrotation Yrotation
			JOINT RightUpArm
			{
				OFFSET	-6.07	 0.00	 0.00
				CHANNELS 3 Zrotation Xrotation Yrotation
				JOINT RightLowArm
				{
					OFFSET	 0.00	-11.82	 0.00
					CHANNELS 3 Zrotation Xrotation Yrotation
					JOINT RightHand
					{
						OFFSET	 0.00	-10.65	 0.00
						CHANNELS 3 Zrotation Xrotation Yrotation
						End Site 
						{
							OFFSET	 0.00	-7.00	 0.00
						}
					}
				}
			}
		}
	}
	JOINT LeftUpLeg
	{
		OFFSET	 3.91	 0.00	 0.00
		CHANNELS 3 Zrotation Xrotation Yrotation
		JOINT LeftLowLeg
		{
			OFFSET	 0.00	-18.34	 0.00
			CHANNELS 3 Zrotation Xrotation Yrotation
			JOINT LeftFoot
			{
				OFFSET	 0.00	-17.37	 0.00
				CHANNELS 3 Zrotation Xrotation Yrotation
				End Site 
				{
					OFFSET	 0.00	-3.46	 0.00
				}
			}
		}
	}
	JOINT RightUpLeg
	{
		OFFSET	-3.91	 0.00	 0.00
		CHANNELS 3 Zrotation Xrotation Yrotation
		JOINT RightLowLeg
		{
			OFFSET	 0.00	-17.63	 0.00
			CHANNELS 3 Zrotation Xrotation Yrotation
			JOINT RightFoot
			{
				OFFSET	 0.00	-17.14	 0.00
				CHANNELS 3 Zrotation Xrotation Yrotation
				End Site 
				{
					OFFSET	 0.00	-3.75	 0.00
				}
			}
		}
	}
}
MOTION
Frames:    26
Frame Time: 0.033333
-8.20	 38.34	-54.77	 1.53	 7.24	 15.93	 43.72	 53.91	-44.12	 0.27	-1.22	 0.00	-13.37	-39.74	-9.13	 17.80	 0.00	-14.00	 106.44	-77.63	 113.90	-27.99	-27.71	-42.65	 0.59	-2.17	 0.02	 12.60	 0.00	-3.50	-53.97	-13.43	-26.16	 25.60	-30.09	 33.65	-2.05	 4.31	 0.15	 8.00	 7.75	-1.09	-4.34	 36.43	 6.72	 0.00	-5.98	 0.00	-24.82	-35.77	-15.12	 9.22	 24.34	-15.32	 0.00	-18.74	 0.00	
-8.75	 37.48	-50.90	 3.62	 6.61	 19.03	 43.13	 51.80	-39.44	 2.86	 0.40	 0.00	-11.98	-40.12	-6.97	 19.87	 0.00	-18.88	 148.19	-77.15	 155.24	-32.66	-27.17	-47.98	 0.61	-2.05	 0.02	 7.96	 0.00	-12.83	-50.92	-8.74	-16.26	 25.79	-26.68	 37.31	-2.29	 4.70	 0.19	 8.44	 8.71	-1.29	-1.82	 43.12	 6.55	 0.00	-0.58	 0.00	-26.16	-32.16	-14.65	 7.64	 20.32	-17.39	 0.00	-14.88	 0.00	
-9.28	 36.48	-47.20	 4.63	 4.55	 21.18	 43.54	 51.18	-35.32	 4.58	 0.86	 0.00	-11.06	-40.34	-5.55	 21.03	 0.00	-22.20	 171.56	-71.96	 177.59	-38.55	-26.41	-54.06	 0.62	-1.90	 0.02	-3.63	 0.00	-19.62	-41.31	-1.93	-4.29	 28.59	-22.14	 48.04	-2.49	 4.96	 0.21	 9.09	 7.96	-1.27	 4.15	 53.95	 2.83	 0.00	 0.44	 0.00	-25.82	-29.11	-13.24	 8.81	 24.36	-19.69	 0.00	-10.22	 0.00	
-9.70	 35.70	-43.76	 3.99	 1.93	 21.91	 45.31	 51.80	-32.05	 5.16	 0.36	 0.00	-10.78	-40.40	-5.11	 21.36	 0.00	-23.86	-179.20	-66.74	-174.43	-45.42	-27.21	-59.19	 0.65	-1.66	 0.02	-16.63	 0.00	-21.99	-31.45	 5.19	 2.19	 32.87	-14.97	 64.93	-2.55	 5.03	 0.22	 9.76	 5.08	-0.87	 15.21	 66.07	-6.11	 0.00	-2.27	 0.00	-23.87	-27.27	-11.46	 13.36	 33.24	-22.92	 0.00	-9.90	 0.00	
-10.07	 35.26	-40.51	 2.53	 0.14	 21.08	 45.84	 53.44	-29.50	 6.16	-0.43	 0.00	-10.26	-40.51	-4.31	 21.27	 0.00	-23.23	-175.03	-64.58	-170.95	-53.97	-29.95	-64.05	 0.67	-1.28	 0.02	-23.89	 0.00	-21.50	-26.73	 6.40	 2.11	 37.23	-5.95	 82.68	-2.40	 4.85	 0.20	 9.75	-0.23	 0.04	 35.15	 76.33	-24.08	 0.00	-6.81	 0.00	-20.78	-26.09	-9.47	 19.45	 42.05	-26.85	 0.00	-14.63	 0.00	
-10.46	 35.16	-37.35	 1.36	-0.23	 19.28	 42.99	 55.91	-28.55	 8.38	-0.53	 0.00	-9.01	-40.76	-2.40	 21.00	 0.00	-19.14	-171.60	-67.27	-167.01	-64.56	-32.78	-70.02	 0.70	-0.78	 0.01	-24.62	 0.00	-18.76	-26.56	-0.33	-3.10	 40.54	 3.51	 96.15	-2.18	 4.53	 0.17	 8.81	-7.73	 1.19	 69.31	 82.19	-57.09	 0.00	-11.50	 0.00	-17.19	-24.41	-7.28	 24.00	 47.60	-29.75	 0.00	-21.02	 0.00	
-10.80	 35.32	-34.17	 0.89	-0.11	 17.27	 37.90	 58.65	-28.85	 9.45	 0.73	 0.00	-8.26	-40.89	-1.24	 20.25	 0.00	-14.32	-170.21	-74.49	-164.07	-76.17	-32.99	-77.01	 0.71	-0.23	 0.00	-21.82	 0.00	-13.92	-28.74	-11.09	-11.83	 40.49	 12.44	 106.25	-2.08	 4.38	 0.16	 7.27	-15.89	 2.00	 97.66	 84.51	-85.34	 0.00	-15.19	 0.00	-13.76	-20.99	-5.01	 25.62	 49.53	-30.41	 0.00	-26.24	 0.00	
-10.90	 35.68	-30.94	 1.07	-0.14	 15.17	 31.77	 61.15	-28.77	 7.36	 2.57	 0.00	-9.32	-40.70	-2.87	 18.42	 0.00	-11.68	 164.57	-84.90	 172.38	-86.90	-30.60	-83.23	 0.71	 0.27	 0.00	-18.00	 0.00	-7.78	-32.47	-21.57	-21.77	 37.59	 19.58	 115.29	-2.08	 4.37	 0.16	 5.16	-23.19	 2.04	 61.68	 86.98	-49.18	 0.00	-17.48	 0.00	-11.41	-15.56	-3.10	 24.61	 48.35	-28.46	 0.00	-29.26	 0.00	
-10.77	 36.25	-27.71	 1.38	 0.28	 12.18	 23.54	 63.03	-25.71	 3.06	 3.53	 0.00	-11.78	-40.17	-6.66	 15.09	 0.00	-11.32	 51.57	-78.11	 59.84	-96.24	-27.85	-88.10	 0.71	 0.69	-0.01	-14.56	 0.00	-0.88	-37.14	-29.33	-30.99	 36.32	 22.46	 118.42	-2.01	 4.26	 0.15	 3.34	-29.30	 1.64	-6.54	 80.59	 20.60	 0.00	-18.60	 0.00	-10.11	-9.74	-1.73	 21.46	 45.16	-23.78	 0.00	-29.97	 0.00	
-10.56	 36.98	-24.48	 1.25	 1.58	 7.85	 12.30	 64.08	-18.60	-1.10	 2.88	 0.00	-14.13	-39.52	-10.32	 10.12	 0.00	-11.51	 46.86	-61.47	 53.01	-104.21	-26.45	-92.11	 0.70	 1.01	-0.01	-12.20	 0.00	 6.77	-41.28	-33.72	-37.87	 38.53	 17.85	 109.40	-1.99	 4.22	 0.15	 3.32	-34.10	 1.86	-12.22	 67.41	 28.67	 0.00	-19.01	 0.00	-9.16	-5.00	-0.80	 17.13	 41.12	-17.23	 0.00	-28.59	 0.00	
-10.33	 37.70	-21.17	 0.76	 3.30	 2.81	-0.23	 63.83	-9.95	-4.01	 1.22	 0.00	-15.68	-39.01	-12.77	 3.92	 0.00	-10.73	 50.07	-44.64	 50.86	-109.46	-27.74	-95.44	 0.69	 1.16	-0.01	-11.73	 0.00	 15.18	-42.29	-36.00	-40.59	 42.44	 3.66	 88.22	-1.94	 4.13	 0.14	 5.06	-37.00	 3.05	-10.25	 51.80	 28.43	 0.00	-19.11	 0.00	-8.66	-1.13	-0.17	 13.25	 36.98	-10.57	 0.00	-25.26	 0.00	
-10.04	 38.18	-17.72	-0.21	 4.91	-2.44	-10.90	 62.01	-2.41	-6.15	-0.07	 0.00	-16.73	-38.63	-14.44	-1.83	 0.00	-9.58	 53.85	-29.09	 45.96	-110.36	-34.23	-98.22	 0.70	 1.08	-0.01	-13.26	 0.00	 23.15	-40.57	-39.45	-40.87	 44.03	-15.05	 67.23	-1.76	 3.68	 0.11	 7.95	-37.98	 4.91	-6.94	 37.50	 25.60	 0.00	-18.90	 0.00	-8.85	 1.89	 0.29	 10.89	 34.23	-4.95	 0.00	-20.15	 0.00	
-9.65	 38.25	-14.14	-1.74	 5.81	-7.87	-18.27	 59.34	 3.73	-8.55	-0.37	 0.00	-17.84	-38.20	-16.23	-5.08	 0.00	-9.41	 54.60	-15.59	 34.82	-105.01	-48.97	-98.19	 0.72	 0.67	-0.01	-15.50	 0.00	 28.88	-40.08	-45.58	-42.71	 43.22	-28.74	 55.42	-1.59	 3.11	 0.09	 11.60	-37.19	 7.07	-4.10	 28.09	 22.79	 0.00	-17.63	 0.00	-9.71	 3.89	 0.67	 9.71	 34.76	-0.50	 0.00	-13.64	 0.00	
-9.18	 37.84	-10.47	-3.54	 5.42	-13.24	-23.08	 57.07	 8.97	-11.35	-0.11	 0.00	-19.07	-37.67	-18.24	-5.18	 0.00	-9.71	 51.37	-5.57	 20.61	-77.04	-66.69	-75.02	 0.73	-0.25	 0.00	-17.18	 0.00	 31.76	-43.51	-54.59	-48.51	 42.46	-33.66	 51.48	-1.52	 2.82	 0.07	 15.04	-34.66	 8.69	-2.88	 25.42	 21.50	 0.00	-15.06	 0.00	-11.15	 4.76	 0.94	 8.25	 39.87	 3.14	 0.00	-6.67	 0.00	
-8.72	 37.11	-6.85	-4.89	 3.69	-17.54	-26.40	 56.15	 12.66	-13.49	 0.02	 0.00	-19.93	-37.28	-19.64	-2.18	 0.00	-9.38	 45.36	-0.02	 11.52	-20.82	-61.35	-20.24	 0.69	-1.54	 0.02	-17.95	 0.00	 32.23	-54.59	-65.75	-61.54	 43.48	-32.35	 52.88	-1.54	 2.79	 0.07	 16.71	-31.20	 8.84	-4.33	 29.49	 22.49	 0.00	-13.40	 0.00	-12.79	 4.41	 1.00	 4.43	 49.06	 6.96	 0.00	-1.53	 0.00	
-8.30	 36.39	-3.39	-5.11	 1.67	-19.79	-28.57	 56.38	 14.11	-14.03	-0.10	 0.00	-20.04	-37.22	-19.84	 3.28	 0.00	-8.63	 38.37	 1.98	 8.14	-5.17	-41.96	-4.06	 0.56	-2.40	 0.02	-18.56	 0.00	 30.84	-81.54	-74.65	-89.34	 46.07	-31.21	 55.75	-1.56	 2.71	 0.07	 15.97	-28.10	 7.68	-8.34	 36.90	 25.66	 0.00	-15.33	 0.00	-14.21	 2.51	 0.64	-2.93	 59.77	 12.61	 0.00	-0.09	 0.00	
-7.91	 36.01	-0.13	-4.99	 0.37	-20.18	-28.56	 57.55	 13.15	-13.74	-0.59	 0.00	-19.85	-37.31	-19.51	 7.60	 0.00	-7.75	 34.22	 1.00	 8.34	-2.56	-28.98	-0.92	 0.41	-2.49	 0.02	-17.93	 0.00	 29.29	-107.72	-78.11	-115.39	 47.36	-31.24	 57.03	-1.55	 2.63	 0.07	 14.15	-25.05	 6.09	-12.74	 42.64	 28.57	 0.00	-20.68	 0.00	-14.29	-0.95	-0.24	-12.56	 67.80	 20.59	 0.00	-0.71	 0.00	
-7.58	 35.98	 2.97	-4.70	-0.15	-18.93	-26.03	 59.51	 9.65	-12.90	-1.36	 0.00	-19.48	-37.49	-18.90	 10.03	 0.00	-6.56	 33.45	-2.82	 11.09	-3.03	-22.23	-2.69	 0.30	-2.38	 0.01	-15.63	 0.00	 28.22	-106.38	-80.63	-113.87	 48.38	-30.49	 58.29	-1.58	 2.66	 0.07	 11.79	-21.74	 4.42	-15.57	 45.70	 29.40	 0.00	-26.04	 0.00	-13.19	-5.84	-1.37	-20.65	 72.96	 27.39	 0.00	-2.01	 0.00	
-7.31	 36.21	 5.96	-4.23	-0.04	-16.30	-20.71	 61.91	 3.49	-11.59	-2.26	 0.00	-18.95	-37.73	-18.04	 11.08	 0.00	-5.15	 35.23	-9.08	 16.39	-4.79	-18.84	-8.08	 0.24	-2.32	 0.01	-11.99	 0.00	 27.50	-65.33	-80.02	-72.86	 49.80	-29.11	 60.05	-1.66	 2.78	 0.08	 9.26	-18.10	 2.90	-15.99	 46.54	 27.51	 0.00	-29.52	 0.00	-11.60	-11.94	-2.43	-22.72	 76.35	 28.39	 0.00	-3.78	 0.00	
-7.11	 36.64	 8.90	-3.65	 0.56	-12.56	-12.10	 64.20	-5.58	-9.96	-3.16	 0.00	-18.29	-38.01	-16.96	 11.26	 0.00	-3.79	 38.81	-17.46	 24.58	-7.50	-17.51	-15.96	 0.24	-2.37	 0.01	-7.52	 0.00	 26.75	-38.90	-70.05	-45.98	 51.10	-28.48	 61.44	-1.75	 2.92	 0.09	 7.01	-14.13	 1.72	-14.34	 45.78	 23.28	 0.00	-31.27	 0.00	-10.25	-18.84	-3.34	-14.68	 78.06	 19.45	 0.00	-6.14	 0.00	
-6.99	 37.17	 11.86	-3.04	 1.51	-8.01	-0.15	 65.67	-17.31	-8.15	-3.95	 0.00	-17.53	-38.32	-15.73	 11.02	 0.00	-2.77	 43.66	-27.42	 35.30	-11.17	-17.74	-24.64	 0.29	-2.51	 0.01	-2.77	 0.00	 25.57	-34.41	-55.32	-39.17	 51.05	-30.05	 60.86	-1.82	 3.06	 0.10	 5.41	-9.94	 0.94	-11.61	 43.93	 17.76	 0.00	-31.46	 0.00	-9.83	-25.84	-4.32	 0.54	 76.92	 3.43	 0.00	-9.17	 0.00	
-6.97	 37.73	 14.89	-2.46	 2.65	-2.99	 13.67	 65.70	-30.04	-6.33	-4.55	 0.00	-16.72	-38.64	-14.43	 10.78	 0.00	-2.35	 49.43	-38.17	 47.03	-15.69	-19.26	-32.33	 0.39	-2.60	 0.02	 1.70	 0.00	 23.52	-36.25	-41.03	-36.24	 48.24	-33.46	 57.04	-1.81	 3.17	 0.10	 4.69	-5.74	 0.47	-8.85	 41.45	 12.20	 0.00	-30.15	 0.00	-10.85	-32.07	-5.81	 11.29	 72.17	-8.17	 0.00	-12.52	 0.00	
-7.07	 38.22	 18.06	-1.90	 3.85	 2.14	 26.57	 64.11	-40.80	-4.65	-4.82	 0.00	-15.93	-38.92	-13.18	 10.95	 0.00	-2.80	 55.99	-48.92	 58.29	-20.37	-21.58	-37.87	 0.47	-2.56	 0.02	 5.56	 0.00	 20.18	-40.10	-30.03	-33.82	 42.62	-36.48	 50.31	-1.76	 3.26	 0.10	 4.86	-1.74	 0.15	-6.76	 38.83	 7.72	 0.00	-27.24	 0.00	-13.42	-36.68	-8.11	 14.61	 64.25	-12.64	 0.00	-15.51	 0.00	
-7.28	 38.58	 21.43	-1.25	 5.03	 7.01	 36.24	 61.33	-47.18	-3.23	-4.58	 0.00	-15.23	-39.17	-12.05	 11.94	 0.00	-4.43	 63.56	-59.20	 68.86	-24.02	-24.05	-40.82	 0.53	-2.42	 0.02	 8.73	 0.00	 15.12	-44.68	-22.67	-31.84	 35.84	-37.20	 42.76	-1.73	 3.42	 0.10	 5.72	 1.86	-0.19	-5.55	 36.55	 5.17	 0.00	-22.49	 0.00	-17.10	-39.07	-10.97	 14.02	 53.48	-13.61	 0.00	-17.65	 0.00	
-7.62	 38.72	 25.05	-0.42	 6.22	 11.30	 41.85	 57.99	-48.21	-2.06	-3.55	 0.00	-14.61	-39.37	-11.08	 14.21	 0.00	-7.77	 73.82	-68.94	 80.71	-25.72	-26.26	-41.16	 0.57	-2.29	 0.02	 11.44	 0.00	 7.77	-49.77	-18.13	-30.51	 29.86	-34.76	 36.77	-1.81	 3.76	 0.12	 6.90	 4.95	-0.60	-5.05	 34.98	 5.08	 0.00	-15.68	 0.00	-21.01	-38.88	-13.55	 12.06	 39.72	-13.77	 0.00	-19.02	 0.00	
-8.07	 38.49	 28.88	 1.02	 7.17	 15.06	 43.73	 54.65	-45.19	-0.34	-1.73	 0.00	-13.70	-39.65	-9.65	 17.17	 0.00	-12.71	 97.01	-76.57	 104.46	-27.16	-27.64	-41.77	 0.59	-2.19	 0.02	 12.87	 0.00	-1.15	-53.75	-14.45	-27.74	 26.01	-30.93	 33.67	-2.00	 4.21	 0.15	 7.87	 7.32	-1.01	-4.63	 35.52	 6.46	 0.00	-7.81	 0.00	-24.23	-36.59	-15.02	 9.79	 26.56	-14.86	 0.00	-19.22	 0.00	
